<svg width="437" height="246" xmlns="http://www.w3.org/2000/svg" xmlns:xlink="http://www.w3.org/1999/xlink" overflow="hidden"><defs><clipPath id="clip0"><rect x="0" y="0" width="437" height="246"/></clipPath></defs><g clip-path="url(#clip0)"><rect x="0" y="0" width="437" height="246.146" fill="#293030"/><path d="M338.901 195.29C330.441 197.343 322.285 201.61 314.433 208.092 306.581 214.573 302.654 219.696 302.654 223.459 302.654 225.056 303.356 225.854 304.76 225.854 307.946 225.854 313.883 221.596 322.57 213.081 329.057 206.732 334.5 200.802 338.901 195.29ZM406.427 182.46C405.592 182.46 405.175 183.11 405.175 184.412 405.175 185.713 405.554 187.053 406.313 188.431 407.186 190 408.21 190.785 409.386 190.785 409.841 190.785 410.201 190.633 410.467 190.328L408.874 185.791C408.039 183.57 407.223 182.46 406.427 182.46ZM265.043 164.554C262.805 164.554 258.177 167.907 251.159 174.613 244.141 181.319 240.632 185.796 240.632 188.044 240.632 189.073 241.125 189.588 242.112 189.588 244.274 189.588 248.911 186.301 256.024 179.729 263.137 173.156 266.693 168.727 266.693 166.441 266.693 165.183 266.143 164.554 265.043 164.554ZM358.304 164.212C355.877 164.212 351.201 167.541 344.278 174.197 337.355 180.854 333.893 185.51 333.893 188.165 333.893 189.113 334.254 189.587 334.975 189.587 337.099 189.587 341.784 186.382 349.029 179.972 356.464 173.372 360.182 168.802 360.182 166.261 360.182 164.895 359.556 164.212 358.304 164.212ZM427.082 163.813 406.711 180.407C408.115 180.636 409.291 181.746 410.239 183.736L412.117 188.557C414.772 186.347 417.693 182.537 420.88 177.128 423.839 172.099 425.906 167.661 427.082 163.813ZM397.075 163.414C394.609 163.414 391.252 165.695 387.003 170.257 383.21 174.4 380.725 177.936 379.549 180.863 383.039 179.152 386.719 176.833 390.588 173.906 395.747 170.067 398.327 167.025 398.327 164.782 398.327 163.87 397.909 163.414 397.075 163.414ZM203.687 126.913C197.251 130.214 191.232 134.967 185.629 141.171 180.026 147.375 177.224 151.369 177.224 153.152 177.224 153.987 177.546 154.404 178.19 154.404 180.84 154.404 185.44 150.572 191.99 142.907 197.63 136.304 201.529 130.973 203.687 126.913ZM244.598 122.699C245.964 122.699 246.647 123.555 246.647 125.265 246.647 126.444 242.835 131.538 235.21 140.548L201.581 180.236C215.313 167.995 224.493 161.874 229.121 161.874 231.17 161.874 232.194 162.958 232.194 165.125 232.194 167.443 228.941 171.853 222.435 178.354 215.929 184.855 212.677 188.675 212.677 189.816 212.677 190.88 213.72 191.412 215.806 191.412L215.884 191.425 215.908 191.41C216.079 191.336 216.278 191.28 216.506 191.241 220.072 190.671 225.003 187.915 231.3 182.973L238.641 177.213 250.419 167.805C255.806 164.079 260.415 162.216 264.246 162.216 267.091 162.216 268.685 163.645 269.026 166.501 270.506 165.089 271.53 164.383 272.099 164.383 273.351 164.383 273.977 164.899 273.977 165.93 273.977 167.263 271.065 171.338 265.242 178.155 259.419 184.973 256.508 188.942 256.508 190.064 256.508 190.85 257.134 191.262 258.385 191.299 258.698 191.308 258.972 191.336 259.207 191.382L259.753 191.562 260.5 191.241C261.941 190.975 263.629 190.405 265.564 189.53 268.333 188.314 273.986 184.246 282.521 177.328 290.184 171.093 295.703 166.322 299.079 163.015 299.648 162.444 300.54 161.76 301.754 160.962 302.361 160.734 303.005 160.62 303.688 160.62 304.333 160.62 304.988 160.838 305.651 161.275 306.315 161.713 306.647 162.235 306.647 162.844 306.647 163.528 303.612 167.919 297.543 176.016 307.975 167.158 315.296 162.73 319.507 162.73 322.2 162.73 323.547 164.003 323.547 166.55 323.547 168.793 320.493 172.851 314.386 178.725 308.278 184.598 305.225 188.143 305.225 189.359 305.225 190.576 305.917 191.232 307.302 191.327L308.605 191.595 309.312 191.241C313.333 190.293 318.321 187.504 324.277 182.875L340.21 170.184C347.872 164.568 353.657 161.76 357.565 161.76 360.789 161.76 362.363 163.566 362.287 167.177 364.07 165.125 365.341 164.098 366.1 164.098 367.2 164.098 367.75 164.725 367.75 165.98 367.75 167.158 361.377 175.674 348.631 191.526 348.859 191.526 349.295 191.498 349.94 191.441L351.165 191.357 351.61 191.241C353.924 190.863 357.187 189.446 361.397 186.99 366.025 184.346 369.8 182.684 372.721 182.003 374.466 177.784 378.07 173.355 383.532 168.717 389.336 163.737 394.287 161.247 398.384 161.247 401.418 161.247 402.936 162.54 402.936 165.125 402.936 168.508 399.73 172.195 393.319 176.187 388.615 179.152 383.798 181.471 378.866 183.144 378.335 184.352 378.07 185.617 378.07 186.938 378.07 188.901 378.757 190.184 380.132 190.789 380.82 191.053 382.12 191.223 384.03 191.298 384.374 191.308 384.675 191.336 384.932 191.382L385.169 191.453 385.544 191.241C386.947 190.9 389.11 190.141 392.031 188.965 394.762 187.484 401.704 182.096 412.857 172.799 423.44 163.995 428.865 159.593 429.131 159.593 430.003 159.593 430.866 159.973 431.72 160.732 432.573 161.49 433 162.306 433 163.18 433 165.949 430.838 170.825 426.513 177.808 422.758 183.842 419.476 188.357 416.669 191.355 418.338 191.355 419.173 191.668 419.173 192.293 419.173 193.074 418.369 193.465 416.761 193.465 416.339 193.465 415.717 193.389 414.894 193.237 414.071 193.085 413.449 193.009 413.027 193.009 412.724 193.009 412.269 193.066 411.662 193.18 411.055 193.294 410.6 193.351 410.296 193.351 405.478 193.351 403.07 190.082 403.07 183.543 395.179 190.044 389.186 193.294 385.089 193.294L384.843 193.21 384.336 193.385C383.165 193.629 381.408 193.75 379.066 193.75 374.115 193.75 371.64 191.602 371.64 187.307 371.64 186.318 371.772 185.235 372.038 184.056 370.141 184.512 366.575 186.261 361.34 189.302 357.291 191.631 354.098 192.941 351.762 193.232L350.86 193.291 350.683 193.357C350.406 193.428 350.082 193.483 349.712 193.522L346.753 193.693C328.279 216.655 314.699 228.135 306.012 228.135 302.446 228.135 300.663 226.634 300.663 223.63 300.663 218.84 304.21 213.205 311.303 206.723 318.397 200.241 328.279 195.499 340.949 192.496 344.212 188.846 346.848 185.52 348.859 182.517 344.989 185.9 342.543 187.972 341.518 188.732 338.104 191.241 335.221 192.496 332.869 192.496 330.1 192.496 328.715 190.823 328.715 187.478 328.715 185.349 329.36 183.011 330.65 180.464 325.301 184.645 321.868 187.231 320.351 188.219 315.343 191.602 311.455 193.294 308.686 193.294L308.334 193.182 307.059 193.394C306.544 193.441 305.942 193.465 305.255 193.465 302.086 193.465 300.502 192.056 300.502 189.236 300.502 186.875 302.019 183.885 305.054 180.266 306.609 178.399 309.416 175.523 313.475 171.638 316.51 168.743 318.028 166.99 318.028 166.381 318.028 165.885 317.686 165.638 317.003 165.638 314.841 165.638 310.137 168.533 302.892 174.324 296.86 179.125 292.384 183.068 289.463 186.154 285.745 190.078 283.488 192.04 282.692 192.04 282.085 192.04 281.535 191.745 281.041 191.156 280.548 190.566 280.302 189.949 280.302 189.302 280.302 188.428 282.919 184.893 288.154 178.696L297.543 167.577 282.976 179.437 272.222 187.706C266.759 191.431 262.567 193.294 259.646 193.294L259.267 193.177 258.087 193.392C257.603 193.441 257.039 193.465 256.394 193.465 253.852 193.465 252.581 192.342 252.581 190.094 252.581 188.304 253.606 185.752 255.654 182.439L248.598 188.439C245.146 191.029 242.396 192.325 240.348 192.325 237.085 192.325 235.454 190.668 235.454 187.355 235.454 185.526 235.89 183.508 236.763 181.299 226.634 189.296 219.654 193.294 215.823 193.294L215.596 193.209 215.034 193.34C214.686 193.385 214.279 193.408 213.815 193.408 210.514 193.408 208.864 192.02 208.864 189.245 208.864 186.052 211.406 181.851 216.489 176.643 222.71 170.257 226.067 166.626 226.561 165.752 226.599 165.296 226.371 165.068 225.878 165.068 223.791 165.068 218.481 168.698 209.945 175.959 203.572 181.357 198.451 185.995 194.582 189.873 193.026 191.431 191.756 192.572 190.769 193.294 190.2 193.294 189.66 192.933 189.148 192.211 188.635 191.488 188.379 190.823 188.379 190.215 188.379 189.34 190.978 185.596 196.175 178.981L205.222 167.577C201.543 171.036 196.953 174.933 191.452 179.266L180.527 187.649C175.026 191.412 170.797 193.294 167.838 193.294 167.383 193.294 167.155 193.059 167.155 192.59 167.155 191.886 167.534 191.437 168.293 191.241 171.442 190.445 174.211 189.307 176.601 187.827 181.039 185.095 187.697 179.973 196.573 172.461L208.067 162.73C210.495 160.677 217.229 153.169 228.268 140.205 238.207 128.535 243.65 122.699 244.598 122.699ZM199.985 113.519C206.13 113.519 209.355 116.427 209.658 122.243 210.872 121.787 211.764 121.559 212.333 121.559 213.016 121.559 213.357 121.911 213.357 122.615 213.357 123.279 212.048 124.029 209.431 124.864 208.141 130.632 204.139 137.521 197.425 145.529 190.179 154.145 183.996 158.453 178.875 158.453 175.84 158.453 174.322 157.008 174.322 154.119 174.322 149.747 178.325 143.931 186.329 136.67 193.499 130.207 199.701 125.912 204.936 123.783 205.353 122.748 205.561 121.752 205.561 120.794 205.561 117.883 203.953 116.427 200.736 116.427 193.815 116.427 184.275 120.428 172.117 128.43 160.296 136.204 149.377 145.071 139.361 155.031 130.121 165.942 125.501 175.009 125.501 182.231 125.501 188.048 128.953 190.956 135.857 190.956 140.864 190.956 146.327 189.607 152.244 186.907 156.379 185.007 160.647 182.479 165.047 179.323L170.453 175.275C171.06 175.275 171.364 175.826 171.364 176.928 171.364 179.665 168.67 182.802 163.283 186.337 159.718 188.694 155.725 190.794 151.306 192.638 146.886 194.482 142.59 195.404 138.417 195.404 133.638 195.404 129.598 193.959 126.297 191.07 122.845 188.067 121.119 184.189 121.119 179.437 121.119 169.401 127.17 158.377 139.271 146.364 149.02 136.67 159.547 128.953 170.851 123.213 183.597 116.75 193.309 113.519 199.985 113.519ZM147.417 96.9879C139.785 99.4589 132.865 103.973 126.657 110.531 120.449 117.089 117.345 122.477 117.345 126.697 117.345 127.989 117.801 128.636 118.712 128.636 122.357 128.636 131.925 118.086 147.417 96.9879ZM80.0778 18.0107C86.4509 18.0107 91.1168 19.2272 94.0757 21.6601 97.376 24.3593 99.0261 28.8071 99.0261 35.0036 99.0261 40.7439 95.1379 46.5033 87.3613 52.2816 78.3707 58.9343 66.4593 62.4888 51.6269 62.945 52.5753 65.0738 54.0167 70.1679 55.9514 78.2272 57.7343 85.5261 58.9767 89.6128 59.6785 90.4872 60.3803 91.3615 61.8503 91.7987 64.0884 91.7987 64.5436 91.7987 64.8661 91.9508 65.0557 92.2549 65.0462 92.4544 64.9811 92.6493 64.8601 92.8394L64.5046 93.2123 66.3586 92.6769C68.5777 91.9514 70.5835 91.0338 72.3759 89.9241 76.8143 87.1923 83.4718 82.0703 92.3486 74.5581L103.843 64.8267C106.271 62.7739 113.004 55.2658 124.043 42.3025 133.982 30.6318 139.425 24.7964 140.374 24.7964 141.739 24.7964 142.422 25.6518 142.422 27.3625 142.422 28.541 138.61 33.635 130.985 42.6447L97.3559 82.3328C111.088 70.0919 120.268 63.9714 124.896 63.9714 126.945 63.9714 127.969 65.0548 127.969 67.2217 127.969 69.5406 124.716 73.9504 118.21 80.4511 111.705 86.9517 108.452 90.7723 108.452 91.9128 108.452 92.9772 109.495 93.5094 111.581 93.5094L111.705 93.5297 112.053 93.3383C116.833 92.1622 123.434 88.121 131.855 81.2146L141.813 73.0185 148.243 67.3268C151.847 64.2155 153.876 62.6599 154.331 62.6599 155.318 62.6599 156.256 62.9931 157.148 63.6595 158.039 64.326 158.485 65.1356 158.485 66.0884L149.495 76.5432C143.501 83.6664 140.504 88.4088 140.504 90.7705 140.504 91.4559 140.884 91.7987 141.642 91.7987 143.918 91.7987 149.476 87.5712 158.314 79.1164 164.801 72.908 170.188 67.3663 174.475 62.4914 175.347 61.5012 175.973 61.0062 176.352 61.0062 177.073 61.0062 177.822 61.2623 178.6 61.7746 179.378 62.287 179.766 62.8847 179.766 63.5678 179.766 63.9473 179.52 64.4026 179.026 64.9336 172.04 72.5237 164.389 82.0679 156.074 93.5664L159.667 93.4524 159.791 93.4744 160.038 93.3383C161.328 93.0728 163.282 92.4087 165.899 91.3461 168.441 90.0173 174.093 85.9182 182.856 79.0486 189.343 74.0009 193.421 70.7179 195.09 69.1997 198.087 66.4667 201.425 62.7852 205.104 58.155L184.62 58.9533C183.482 58.9533 182.913 58.6492 182.913 58.041 182.913 57.5467 183.842 57.1666 185.701 56.9005 188.318 56.4823 191.998 56.1212 196.74 55.817 202.013 55.513 205.711 55.2278 207.836 54.9617L215.973 45.2107C220.335 40.0406 222.972 37.4556 223.882 37.4556 225.02 37.4556 225.589 38.1779 225.589 39.6225 225.589 41.1811 222.137 46.2942 215.233 54.9617 219.216 54.6956 222.516 54.5626 225.134 54.5626 226.879 54.5626 227.751 54.9047 227.751 55.589 227.751 56.3492 225.646 56.8625 221.435 57.1286L212.786 57.4137 200.097 73.2982C192.093 83.7358 188.091 89.9606 188.091 91.9724 188.091 92.921 188.736 93.4048 190.026 93.4239 190.348 93.4286 190.63 93.4523 190.872 93.4949L191.215 93.5999 191.677 93.3383C194.825 92.5418 197.595 91.4037 199.984 89.9241 204.423 87.1923 211.08 82.0703 219.957 74.5581L231.451 64.8267C233.879 62.7739 240.612 55.2658 251.651 42.3025 261.59 30.6318 267.034 24.7964 267.982 24.7964 269.348 24.7964 270.031 25.6518 270.031 27.3625 270.031 28.541 266.218 33.635 258.593 42.6447L224.964 82.3328C238.697 70.0919 247.877 63.9714 252.505 63.9714 254.553 63.9714 255.577 65.0548 255.577 67.2217 255.577 69.5406 252.325 73.9504 245.819 80.4511 239.313 86.9517 236.06 90.7723 236.06 91.9128 236.06 92.9772 237.103 93.5094 239.19 93.5094L239.314 93.5296 239.662 93.3383C242.431 92.6552 244.574 91.8964 246.092 91.0618 248.481 89.8097 253.489 86.148 261.114 80.0769 264.566 77.3831 269.535 73.0957 276.022 67.2146 278.45 64.6723 280.195 63.4012 281.257 63.4012 283.381 63.4012 284.443 64.0854 284.443 65.454 284.443 67.2027 282.3 70.8332 278.014 76.3454 286.283 68.7423 291.992 64.9408 295.141 64.9408 296.203 64.9408 297.171 65.2734 298.043 65.9387 298.915 66.6039 299.352 67.4498 299.352 68.4762 299.352 69.9968 298.328 72.2207 296.279 75.1479 303.942 67.5829 309.973 63.8003 314.374 63.8003 316.915 63.8003 318.186 64.8267 318.186 66.8795 318.186 69.5406 315.076 74.0645 308.854 80.4511 302.633 86.8377 299.522 90.6772 299.522 91.9698 299.522 92.9581 300.186 93.4619 301.514 93.4809 302.842 93.4999 303.506 93.8135 303.506 94.4218 303.506 95.182 302.397 95.5622 300.181 95.5622 297.2 95.5622 295.71 94.2507 295.71 91.6276 295.71 88.6624 298.422 84.0911 303.847 77.9135 309.272 71.736 311.984 68.2861 311.984 67.5638 311.984 67.1076 311.699 66.8795 311.13 66.8795 308.854 66.8795 303.885 70.472 296.222 77.657 289.887 83.5873 285.221 88.3963 282.224 92.0838 280.403 94.3647 279.057 95.5052 278.184 95.5052 276.705 95.5052 275.965 94.8209 275.965 93.4524 275.965 92.0458 278.943 88.0162 284.899 81.3635 290.854 74.7107 293.832 70.6051 293.832 69.0464 293.832 68.3622 293.453 68.02 292.694 68.02 290.722 68.02 286.226 71.3274 279.209 77.9421 273.177 83.6444 268.928 88.0922 266.462 91.2855 264.528 93.7945 262.84 95.049 261.398 95.049 260.108 95.049 259.464 94.4788 259.464 93.3383 259.464 91.8937 262.1 87.8831 267.373 81.3064L276.591 69.9018 258.439 84.9559C249.297 91.9128 242.886 95.3911 239.206 95.3911L238.979 95.3066 238.418 95.4375C238.069 95.4826 237.663 95.5052 237.198 95.5052 233.898 95.5052 232.248 94.1176 232.248 91.3425 232.248 88.1492 234.789 83.9485 239.873 78.7404 246.094 72.3538 249.451 68.7233 249.944 67.8489 249.982 67.3928 249.755 67.1647 249.261 67.1647 247.175 67.1647 241.864 70.7952 233.329 78.0561 226.956 83.4543 221.835 88.0922 217.965 91.9698 216.41 93.5284 215.139 94.6689 214.153 95.3911 213.584 95.3911 213.043 95.03 212.531 94.3077 212.019 93.5854 211.763 92.9201 211.763 92.3119 211.763 91.4375 214.362 87.693 219.559 81.0783L228.606 69.6737C224.926 73.1331 220.336 77.0297 214.836 81.3635L203.911 89.7459C198.41 93.5094 194.18 95.3911 191.221 95.3911L191.001 95.3155 190.552 95.4355C190.239 95.482 189.874 95.5052 189.456 95.5052 186.08 95.5052 184.392 94.1367 184.392 91.3995 184.392 89.2326 185.492 86.1344 187.693 82.1048L192.643 73.7794 175.8 87.0658C168.782 92.616 163.376 95.3911 159.583 95.3911L159.444 95.3393 158.929 95.5078C158.597 95.581 158.21 95.6372 157.769 95.6762L154.194 95.8473 138.329 115.52C128.812 126.393 122.064 131.829 118.083 131.829 116.188 131.829 115.24 130.554 115.24 128.003 115.24 122.33 118.964 115.772 126.412 108.329 133.86 100.886 141.526 96.2696 149.41 94.4806L161.2 79.3106 151.874 87.636C146.188 92.3499 142.321 94.7069 140.274 94.7069 137.886 94.7069 136.692 93.0152 136.692 89.6318 136.692 86.7046 138.076 83.2642 140.846 79.3106L147.788 70.529C143.311 74.5206 138.171 78.8354 132.367 83.4733 127.625 87.2368 124.42 89.6698 122.751 90.7723 118.161 93.8515 114.443 95.3911 111.598 95.3911L111.371 95.3066 110.81 95.4375C110.461 95.4826 110.054 95.5052 109.59 95.5052 106.289 95.5052 104.639 94.1176 104.639 91.3425 104.639 88.1492 107.181 83.9485 112.264 78.7404 118.485 72.3538 121.843 68.7233 122.336 67.8489 122.374 67.3928 122.146 67.1647 121.653 67.1647 119.567 67.1647 114.256 70.7952 105.72 78.0561 99.3474 83.4543 94.2262 88.0922 90.3569 91.9698 88.8016 93.5284 87.5308 94.6689 86.5445 95.3911 85.9755 95.3911 85.435 95.03 84.9228 94.3077 84.4107 93.5854 84.1547 92.9201 84.1547 92.3119 84.1547 91.4375 86.7532 87.693 91.9502 81.0783L100.998 69.6737C97.318 73.1331 92.7279 77.0297 87.2273 81.3635L76.3022 89.7459C70.8017 93.5094 66.572 95.3911 63.6131 95.3911 63.1579 95.3911 62.9302 95.1565 62.9302 94.6873L63.1365 94.06 62.2675 94.4218C60.7501 94.954 59.4794 95.2201 58.4551 95.2201 57.1274 95.2201 55.7997 94.7829 54.472 93.9085 53.1442 93.0342 52.1959 91.1334 51.6269 88.2062L49.2939 77.2578C48.3456 73.0761 47.3593 69.4836 46.335 66.4804 45.9177 65.3399 45.1781 63.8573 44.1159 62.0326 42.6364 60.55 41.8967 59.6566 41.8967 59.3525 41.8967 58.3641 43.5847 57.8699 46.9609 57.8699 48.2127 57.8699 49.237 58.3641 50.0336 59.3525 55.7167 59.3525 62.6407 57.7084 70.8055 54.42 78.9704 51.1317 85.0229 47.5107 88.9633 43.5571 93.7372 38.7671 96.1242 34.6995 96.1242 31.3541 96.1242 25.8419 91.4111 23.0858 81.9849 23.0858 78.275 23.0858 73.751 23.5229 68.4129 24.3973 68.5647 25.3097 68.6406 25.9369 68.6406 26.279 68.6406 26.8873 66.6876 29.2252 62.7814 33.2929L55.6713 40.5919C43.3848 53.9733 32.2737 66.7655 22.3384 78.9685 17.4467 84.9749 13.7682 89.7648 11.303 93.3383 9.5154 95.9233 8.051 97.2159 6.91003 97.2159 4.97009 97.2159 4.00001 96.2845 4.00001 94.4218 4.00001 90.5062 20.5458 70.5481 53.6372 34.5474 55.9897 32.0004 59.1774 28.9401 63.2002 25.3666 55.7217 26.8112 46.9144 30.0616 36.7782 35.1176 35.8671 35.5738 35.203 35.8019 34.7857 35.8019 33.4568 35.8019 32.7923 34.7945 32.7923 32.7797 32.7923 30.5748 37.0789 27.9517 45.6522 24.9105 51.6459 22.7436 57.1843 21.109 62.2675 20.0065 68.5267 18.6759 74.4635 18.0107 80.0778 18.0107Z" fill="#FFFFFF" fill-rule="evenodd"/></g></svg>