<svg width="960" height="246" xmlns="http://www.w3.org/2000/svg" xmlns:xlink="http://www.w3.org/1999/xlink" overflow="hidden"><defs><clipPath id="clip0"><rect x="0" y="0" width="960" height="246"/></clipPath></defs><g clip-path="url(#clip0)"><rect x="0" y="0" width="960" height="246.334" fill="#FFFFFF"/><path d="M624.009 32.0434C632.737 32.0434 637.316 36.1688 637.747 44.4196 639.471 43.7725 640.737 43.4489 641.545 43.4489 642.515 43.4489 643 43.9482 643 44.9466 643 45.8895 641.141 46.9529 637.424 48.1367 635.592 56.3201 629.908 66.0916 620.372 77.4515 610.082 89.6735 601.3 95.7844 594.027 95.7844 589.716 95.7844 587.561 93.7353 587.561 89.6368 587.561 83.4352 593.245 75.1846 604.613 64.8846 614.797 55.7171 623.606 49.6235 631.041 46.6036 631.633 45.1358 631.928 43.7227 631.928 42.3644 631.928 38.234 629.644 36.1688 625.074 36.1688 615.245 36.1688 601.697 41.8446 584.43 53.1961 567.641 64.224 552.133 76.8023 537.907 90.931 524.784 106.408 518.223 119.269 518.223 129.515 518.223 137.766 523.125 141.891 532.931 141.891 540.043 141.891 547.801 139.977 556.206 136.148 562.078 133.452 568.139 129.866 574.389 125.39L582.066 119.647C582.928 119.647 583.359 120.429 583.359 121.993 583.359 125.875 579.534 130.324 571.883 135.339 566.819 138.683 561.148 141.662 554.872 144.278 548.595 146.893 542.494 148.201 536.568 148.201 529.779 148.201 524.041 146.152 519.354 142.053 514.451 137.793 512 132.293 512 125.552 512 111.315 520.593 95.6766 537.78 78.6358 551.626 64.8846 566.577 53.9376 582.632 45.7947 600.734 36.6272 614.526 32.0434 624.009 32.0434ZM629.267 51.0437C620.126 55.7268 611.577 62.4687 603.62 71.2692 595.662 80.0697 591.683 85.7352 591.683 88.2655 591.683 89.4494 592.14 90.0413 593.054 90.0413 596.818 90.0413 603.351 84.6048 612.653 73.7319 620.664 64.3656 626.202 56.8028 629.267 51.0437Z" fill="#0E9B8E" fill-rule="evenodd"/><path d="M114.048 35.0475C123.1 35.0475 129.726 36.7706 133.929 40.2167 138.616 44.0399 140.959 50.3401 140.959 59.1172 140.959 67.248 135.437 75.4059 124.393 83.5907 111.624 93.0139 94.7069 98.0487 73.6413 98.6948 74.9882 101.71 77.0355 108.926 79.7832 120.341 82.3154 130.68 84.0798 136.469 85.0765 137.707 86.0732 138.946 88.1609 139.565 91.3396 139.565 91.9861 139.565 92.444 139.78 92.7134 140.211 92.6999 140.494 92.6074 140.77 92.4357 141.039L91.8906 141.609 94.6697 140.809C97.8214 139.781 100.67 138.481 103.216 136.91 109.519 133.04 118.974 125.785 131.581 115.144L147.906 101.36C151.354 98.4526 160.917 87.8177 176.595 69.4558 190.71 52.9247 198.442 44.6592 199.789 44.6592 201.728 44.6592 202.698 45.8708 202.698 48.2938 202.698 49.9631 197.283 57.1786 186.454 69.9405L138.693 126.157C158.196 108.818 171.234 100.149 177.807 100.149 180.716 100.149 182.171 101.683 182.171 104.753 182.171 108.037 177.551 114.284 168.311 123.491 159.072 132.699 154.452 138.111 154.452 139.726 154.452 141.234 155.933 141.988 158.897 141.988L159.156 142.087 159.779 141.746C166.567 140.08 175.941 134.356 187.902 124.573L202.044 112.963 211.176 104.902C216.295 100.494 219.177 98.291 219.823 98.291 221.224 98.291 222.558 98.763 223.824 99.707 225.09 100.651 225.723 101.798 225.723 103.147L212.954 117.956C204.442 128.046 200.186 134.763 200.186 138.108 200.186 139.079 200.724 139.565 201.802 139.565 205.034 139.565 212.927 133.577 225.48 121.601 234.693 112.807 242.344 104.958 248.432 98.0525 249.671 96.6499 250.56 95.9486 251.098 95.9486 252.122 95.9486 253.186 96.3114 254.291 97.0372 255.395 97.7628 255.947 98.6094 255.947 99.577 255.947 100.115 255.597 100.76 254.895 101.512 244.974 112.263 234.108 125.782 222.298 142.069L227.401 141.907 227.655 142.012 228.14 141.746C229.972 141.37 232.747 140.429 236.464 138.924 240.074 137.042 248.101 131.235 260.547 121.505 269.759 114.355 275.551 109.705 277.922 107.554 282.178 103.683 286.919 98.4685 292.145 91.9101L263.052 93.0408C261.436 93.0408 260.628 92.6101 260.628 91.7485 260.628 91.0486 261.947 90.5101 264.587 90.1331 268.305 89.5408 273.531 89.0293 280.265 88.5985 287.754 88.1677 293.007 87.7639 296.024 87.3869L307.58 73.5751C313.776 66.2519 317.521 62.5903 318.814 62.5903 320.43 62.5903 321.238 63.6134 321.238 65.6596 321.238 67.8673 316.335 75.1097 306.53 87.3869 312.187 87.01 316.874 86.8215 320.591 86.8215 323.07 86.8215 324.309 87.3061 324.309 88.2754 324.309 89.3524 321.319 90.0792 315.339 90.4562L303.055 90.8601 285.033 113.36C273.665 128.144 267.982 136.961 267.982 139.811 267.982 141.155 268.897 141.84 270.729 141.867L272.385 142.158 273.115 141.746C277.587 140.617 281.52 139.005 284.914 136.91 291.217 133.04 300.673 125.785 313.28 115.144L329.604 101.36C333.052 98.4526 342.615 87.8177 358.293 69.4558 372.408 52.9247 380.14 44.6592 381.487 44.6592 383.426 44.6592 384.396 45.8708 384.396 48.2938 384.396 49.9631 378.981 57.1786 368.152 69.9405L320.391 126.157C339.894 108.818 352.932 100.149 359.505 100.149 362.414 100.149 363.869 101.683 363.869 104.753 363.869 108.037 359.249 114.284 350.009 123.491 340.77 132.699 336.15 138.111 336.15 139.726 336.15 141.234 337.632 141.988 340.595 141.988L340.854 142.087 341.477 141.746C345.41 140.778 348.454 139.703 350.609 138.521 354.003 136.748 361.114 131.561 371.943 122.961 376.846 119.146 383.904 113.073 393.117 104.743 396.565 101.141 399.043 99.341 400.552 99.341 403.569 99.341 405.077 100.31 405.077 102.249 405.077 104.726 402.033 109.868 395.945 117.676 407.69 106.906 415.799 101.522 420.27 101.522 421.779 101.522 423.153 101.993 424.392 102.935 425.631 103.878 426.251 105.076 426.251 106.53 426.251 108.683 424.796 111.834 421.887 115.98 432.77 105.264 441.336 99.9064 447.585 99.9064 451.195 99.9064 453 101.36 453 104.268 453 108.037 448.582 114.445 439.746 123.491 430.911 132.538 426.493 137.976 426.493 139.807 426.493 141.207 427.436 141.921 429.321 141.948 431.207 141.974 432.15 142.419 432.15 143.28 432.15 144.357 430.576 144.896 427.429 144.896 423.195 144.896 421.078 143.038 421.078 139.323 421.078 135.122 424.931 128.647 432.635 119.897 440.339 111.147 444.191 106.26 444.191 105.237 444.191 104.591 443.787 104.268 442.979 104.268 439.746 104.268 432.689 109.357 421.806 119.534 412.808 127.934 406.182 134.746 401.926 139.969 399.34 143.2 397.427 144.815 396.188 144.815 394.087 144.815 393.036 143.846 393.036 141.907 393.036 139.915 397.265 134.207 405.724 124.784 414.182 115.361 418.412 109.545 418.412 107.337 418.412 106.368 417.873 105.883 416.795 105.883 413.994 105.883 407.61 110.568 397.642 119.938 389.076 128.015 383.042 134.315 379.54 138.838 376.792 142.392 374.395 144.169 372.348 144.169 370.516 144.169 369.6 143.361 369.6 141.746 369.6 139.699 373.344 134.019 380.833 124.703L393.925 108.549 368.145 129.872C355.161 139.726 346.056 144.653 340.83 144.653L340.426 144.503 339.499 144.719C339.004 144.783 338.426 144.815 337.766 144.815 333.079 144.815 330.735 142.85 330.735 138.919 330.735 134.395 334.345 128.445 341.564 121.068 350.4 112.022 355.168 106.88 355.869 105.641 355.922 104.995 355.599 104.672 354.899 104.672 351.936 104.672 344.393 109.814 332.271 120.099 323.22 127.745 315.946 134.315 310.451 139.807 308.242 142.015 306.437 143.63 305.036 144.653 304.228 144.653 303.461 144.142 302.733 143.119 302.006 142.096 301.642 141.153 301.642 140.292 301.642 139.053 305.333 133.749 312.714 124.38L325.563 108.226C320.337 113.126 313.818 118.645 306.006 124.784L290.49 136.657C282.678 141.988 276.671 144.653 272.468 144.653L272.138 144.54 271.477 144.716C271.032 144.782 270.514 144.815 269.921 144.815 265.126 144.815 262.729 142.876 262.729 138.999 262.729 135.93 264.291 131.542 267.416 125.834L274.447 114.041 250.526 132.861C240.559 140.723 232.881 144.653 227.494 144.653L227.197 144.543 226.353 144.819C225.882 144.922 225.333 145.002 224.705 145.057L219.629 145.3 197.096 173.165C183.58 188.566 173.996 196.266 168.342 196.266 165.65 196.266 164.304 194.46 164.304 190.847 164.304 182.812 169.593 173.523 180.172 162.98 190.75 152.436 201.637 145.898 212.834 143.364L229.578 121.876 216.333 133.669C208.258 140.346 202.766 143.684 199.859 143.684 196.467 143.684 194.771 141.288 194.771 136.496 194.771 132.349 196.738 127.476 200.67 121.876L210.53 109.437C204.172 115.091 196.872 121.203 188.629 127.772 181.895 133.103 177.342 136.549 174.972 138.111 168.453 142.473 163.173 144.653 159.132 144.653L158.728 144.503 157.801 144.719C157.306 144.783 156.728 144.815 156.068 144.815 151.381 144.815 149.037 142.85 149.037 138.919 149.037 134.395 152.647 128.445 159.866 121.068 168.702 112.022 173.47 106.88 174.171 105.641 174.224 104.995 173.901 104.672 173.201 104.672 170.238 104.672 162.695 109.814 150.573 120.099 141.522 127.745 134.248 134.315 128.753 139.807 126.544 142.015 124.739 143.63 123.339 144.653 122.53 144.653 121.763 144.142 121.035 143.119 120.308 142.096 119.944 141.153 119.944 140.292 119.944 139.053 123.635 133.749 131.016 124.38L143.865 108.226C138.639 113.126 132.12 118.645 124.308 124.784L108.792 136.657C100.98 141.988 94.9727 144.653 90.7703 144.653 90.1238 144.653 89.8006 144.321 89.8006 143.656L90.1104 142.717 88.7536 143.28C86.5985 144.034 84.7936 144.411 83.339 144.411 81.4534 144.411 79.5677 143.792 77.682 142.553 75.7963 141.315 74.4495 138.622 73.6413 134.476L70.328 118.968C68.981 113.045 67.5803 107.957 66.1257 103.703 65.533 102.087 64.4824 99.9872 62.9739 97.4025 60.8727 95.3025 59.8221 94.0371 59.8221 93.6063 59.8221 92.2063 62.2196 91.5062 67.0146 91.5062 68.7924 91.5062 70.2471 92.2063 71.3785 93.6063 79.4498 93.6063 89.2835 91.2773 100.879 86.6196 112.475 81.9618 121.072 76.8329 126.668 71.2328 133.448 64.448 136.838 58.6863 136.838 53.9478 136.838 46.14 130.144 42.236 116.757 42.236 111.488 42.236 105.063 42.8553 97.4815 44.0938 97.697 45.3861 97.8047 46.2745 97.8047 46.7592 97.8047 47.6208 95.031 50.9323 89.4834 56.694L79.3854 67.0327C61.9355 85.9869 46.1553 104.106 32.0449 121.391 25.0974 129.899 19.873 136.684 16.3719 141.746 13.833 145.407 11.7534 147.238 10.1329 147.238 7.37762 147.238 6 145.919 6 143.28 6 137.734 29.4988 109.464 76.4964 58.4709 79.8375 54.8632 84.3648 50.5285 90.0781 45.4669 79.457 47.5131 66.9485 52.1171 52.5526 59.2787 51.2587 59.9248 50.3155 60.2479 49.7229 60.2479 47.8356 60.2479 46.8919 58.821 46.8919 55.9671 46.8919 52.8439 52.9798 49.1285 65.1558 44.8207 73.6682 41.7514 81.5342 39.436 88.7536 37.8744 97.6431 35.9897 106.075 35.0475 114.048 35.0475ZM210.003 146.915C199.164 150.415 189.336 156.809 180.519 166.098 171.703 175.387 167.294 183.02 167.294 188.997 167.294 190.827 167.941 191.743 169.235 191.743 174.412 191.743 188.002 176.8 210.003 146.915Z" fill="#0E9B8E" fill-rule="evenodd"/><path d="M686.83 45.0611C688.767 45.0611 689.735 46.2715 689.735 48.6922 689.735 50.3599 684.328 57.5685 673.515 70.3182L625.822 126.481C645.297 109.159 658.317 100.497 664.88 100.497 667.785 100.497 669.238 102.031 669.238 105.097 669.238 108.379 664.625 114.619 655.398 123.818 646.172 133.017 641.558 138.423 641.558 140.037 641.558 141.544 643.038 142.297 645.997 142.297L646.335 142.425 647.2 142.055C652.257 141.248 659.251 137.347 668.182 130.354L678.592 122.204 695.296 108.89C702.936 103.618 709.472 100.982 714.906 100.982 718.941 100.982 721.2 103.003 721.684 107.045 723.783 105.047 725.235 104.048 726.042 104.048 727.818 104.048 728.705 104.778 728.705 106.237 728.705 108.123 724.576 113.89 716.318 123.537 708.06 133.184 703.931 138.801 703.931 140.389 703.931 141.501 704.819 142.084 706.594 142.137L708.457 142.501 709.499 142.055C711.543 141.678 713.938 140.871 716.681 139.634 720.609 137.912 728.624 132.156 740.729 122.365 751.596 113.543 759.424 106.792 764.212 102.111 765.019 101.304 766.284 100.336 768.005 99.2063 768.866 98.8836 769.781 98.7222 770.749 98.7222 771.663 98.7222 772.591 99.0315 773.533 99.6502 774.474 100.269 774.945 101.008 774.945 101.869 774.945 102.838 770.641 109.051 762.033 120.509 776.828 107.975 787.211 101.708 793.183 101.708 797.003 101.708 798.912 103.51 798.912 107.114 798.912 110.288 794.582 116.031 785.92 124.342 777.259 132.654 772.928 137.67 772.928 139.392 772.928 141.113 773.91 142.041 775.873 142.176L777.448 142.499 778.338 142.055C784.041 140.712 791.115 136.766 799.562 130.215L822.157 112.256C833.024 104.309 841.229 100.336 846.77 100.336 851.343 100.336 853.575 102.891 853.468 108.002 855.996 105.097 857.799 103.644 858.875 103.644 860.435 103.644 861.215 104.532 861.215 106.307 861.215 107.975 852.177 120.025 834.1 142.458 834.423 142.458 835.042 142.418 835.956 142.337 836.71 142.256 837.301 142.216 837.732 142.216L837.993 142.326 838.679 142.055C841.961 141.52 846.587 139.515 852.559 136.039 859.122 132.297 864.475 129.945 868.618 128.982 871.093 123.011 876.204 116.744 883.951 110.181 892.182 103.133 899.203 99.6098 905.013 99.6098 909.317 99.6098 911.469 101.439 911.469 105.097 911.469 109.885 906.923 115.103 897.831 120.752 891.16 124.948 884.327 128.229 877.333 130.596 876.58 132.306 876.204 134.095 876.204 135.965 876.204 138.743 877.179 140.559 879.129 141.414 880.105 141.788 881.947 142.029 884.657 142.135L886.099 142.393 886.698 142.055C888.688 141.571 891.755 140.497 895.897 138.833 899.771 136.738 909.616 129.113 925.433 115.957 940.443 103.499 948.136 97.2697 948.513 97.2697 949.75 97.2697 950.974 97.8066 952.184 98.8804 953.395 99.9543 954 101.109 954 102.345 954 106.264 950.933 113.164 944.8 123.045 939.474 131.583 934.821 137.974 930.84 142.216 933.207 142.216 934.39 142.658 934.39 143.542 934.39 144.649 933.25 145.202 930.97 145.202 930.372 145.202 929.49 145.094 928.322 144.879 927.155 144.664 926.273 144.556 925.675 144.556 925.245 144.556 924.599 144.637 923.738 144.798 922.877 144.96 922.232 145.04 921.802 145.04 914.969 145.04 911.553 140.414 911.553 131.161 900.363 140.36 891.862 144.96 886.052 144.96L885.758 144.858 885.091 145.089C883.43 145.433 880.939 145.605 877.617 145.605 870.596 145.605 867.085 142.566 867.085 136.487 867.085 135.088 867.273 133.555 867.65 131.887 864.96 132.533 859.903 135.007 852.478 139.311 845.915 143.077 840.938 144.96 837.549 144.96L837.286 144.862 835.634 145.282 831.437 145.524C805.237 178.017 785.977 194.263 773.657 194.263 768.6 194.263 766.072 192.138 766.072 187.888 766.072 181.11 771.102 173.135 781.162 163.963 791.223 154.791 805.237 148.08 823.206 143.83 827.833 138.665 831.572 133.958 834.423 129.708 828.936 134.496 825.466 137.428 824.013 138.504 819.171 142.055 815.083 143.83 811.747 143.83 807.82 143.83 805.856 141.463 805.856 136.729 805.856 133.716 806.771 130.408 808.6 126.804 801.014 132.721 796.145 136.379 793.993 137.778 786.892 142.566 781.378 144.96 777.45 144.96L777.083 144.843 775.529 145.101C774.798 145.168 773.945 145.202 772.971 145.202 768.477 145.202 766.23 143.207 766.23 139.218 766.23 135.876 768.382 131.644 772.686 126.524 774.891 123.882 778.872 119.812 784.629 114.314 788.933 110.217 791.085 107.737 791.085 106.875 791.085 106.174 790.601 105.823 789.632 105.823 786.566 105.823 779.895 109.921 769.619 118.115 761.065 124.908 754.717 130.489 750.574 134.855 745.302 140.408 742.101 143.184 740.971 143.184 740.111 143.184 739.33 142.767 738.631 141.934 737.932 141.1 737.582 140.225 737.582 139.311 737.582 138.074 741.294 133.071 748.718 124.302L762.033 108.567 741.375 125.351 726.123 137.052C718.376 142.324 712.431 144.96 708.289 144.96L707.786 144.805 706.17 145.098C705.484 145.167 704.684 145.202 703.77 145.202 700.165 145.202 698.363 143.612 698.363 140.432 698.363 137.898 699.815 134.287 702.721 129.599L692.714 138.089C687.818 141.755 683.918 143.588 681.013 143.588 676.386 143.588 674.073 141.243 674.073 136.555 674.073 133.968 674.691 131.111 675.929 127.985 661.564 139.301 651.666 144.96 646.232 144.96L645.828 144.81 644.902 145.025C644.408 145.089 643.831 145.121 643.172 145.121 638.492 145.121 636.152 143.157 636.152 139.23 636.152 134.711 639.756 128.767 646.965 121.397 655.788 112.359 660.549 107.222 661.249 105.985 661.303 105.339 660.98 105.016 660.28 105.016 657.321 105.016 649.79 110.154 637.685 120.429 628.647 128.068 621.384 134.631 615.896 140.118 613.691 142.324 611.888 143.937 610.49 144.96 609.683 144.96 608.916 144.448 608.19 143.426 607.464 142.404 607.1 141.463 607.1 140.602 607.1 139.365 610.786 134.066 618.156 124.705L630.987 108.567C625.768 113.462 619.259 118.976 611.458 125.109L595.964 136.971C588.163 142.297 582.165 144.96 577.968 144.96 577.323 144.96 577 144.627 577 143.963 577 142.967 577.538 142.331 578.614 142.055 583.079 140.927 587.007 139.317 590.396 137.223 596.69 133.357 606.132 126.109 618.721 115.479L635.022 101.708C638.465 98.8029 648.014 88.1782 663.67 69.834 677.765 53.3187 685.485 45.0611 686.83 45.0611ZM820.301 147.784C808.304 150.689 796.737 156.727 785.601 165.899 774.464 175.072 768.896 182.321 768.896 187.646 768.896 189.906 769.892 191.035 771.882 191.035 776.401 191.035 784.821 185.01 797.141 172.96 806.34 163.976 814.06 155.584 820.301 147.784ZM945.607 103.241 916.718 126.723C918.708 127.047 920.376 128.617 921.721 131.433L924.384 138.256C928.15 135.129 932.292 129.738 936.811 122.083 941.008 114.967 943.94 108.686 945.607 103.241ZM916.314 129.628C915.13 129.628 914.539 130.549 914.539 132.39 914.539 134.232 915.077 136.128 916.153 138.078 917.39 140.299 918.843 141.409 920.51 141.409 921.156 141.409 921.667 141.193 922.044 140.762L919.784 134.342C918.6 131.199 917.444 129.628 916.314 129.628ZM903.157 102.676C899.66 102.676 894.899 105.904 888.873 112.359 883.493 118.223 879.969 123.226 878.302 127.368 883.251 124.948 888.47 121.666 893.957 117.524 901.274 112.09 904.932 107.787 904.932 104.613 904.932 103.322 904.34 102.676 903.157 102.676ZM847.819 103.806C844.376 103.806 837.745 108.516 827.927 117.936 818.109 127.356 813.2 133.945 813.2 137.702 813.2 139.044 813.711 139.714 814.733 139.714 817.746 139.714 824.39 135.179 834.665 126.108 845.21 116.768 850.482 110.3 850.482 106.705 850.482 104.772 849.594 103.806 847.819 103.806ZM716.036 104.29C712.862 104.29 706.298 109.035 696.345 118.524 686.393 128.014 681.416 134.349 681.416 137.531 681.416 138.987 682.116 139.714 683.514 139.714 686.581 139.714 693.158 135.064 703.245 125.763 713.332 116.463 718.376 110.195 718.376 106.959 718.376 105.18 717.596 104.29 716.036 104.29Z" fill="#0E9B8E" fill-rule="evenodd"/><path d="M481.23 117.159 489.202 117.159C493.067 117.553 495 118.763 495 120.79 495 122.479 494.061 123.352 492.182 123.408L478.734 123.746 460.213 124.168C454.738 124.168 452 123.127 452 121.044 452 118.454 461.743 117.159 481.23 117.159Z" fill="#0E9B8E" fill-rule="evenodd"/><path d="M561.888 188.255C562.668 189.532 563.372 191.056 564 192.826L563.099 193.262C562.399 191.351 561.7 189.801 561 188.612L561.888 188.255Z" fill="#8D8D8D" fill-rule="evenodd"/><path d="M415.874 188.255C416.664 189.541 417.372 191.065 418 192.826L417.099 193.262C416.399 191.351 415.7 189.801 415 188.612L415.874 188.255Z" fill="#8D8D8D" fill-rule="evenodd"/><path d="M558.852 188.255C559.428 189.408 560.144 191.246 561 193.769L560.057 194.263C559.41 192.08 558.725 190.227 558 188.703L558.852 188.255Z" fill="#8D8D8D" fill-rule="evenodd"/><path d="M412.852 189.256C413.428 190.217 414.144 191.745 415 193.838L414.057 194.263C413.41 192.436 412.725 190.891 412 189.63L412.852 189.256Z" fill="#8D8D8D" fill-rule="evenodd"/><path d="M474.484 190.258 475.121 191.392C473.108 192.08 471.066 192.642 468.995 193.078L468.995 199.752 477 199.752 477 200.886 468.995 200.886C468.985 203.57 468.743 205.688 468.27 207.239 467.786 208.848 466.953 210.195 465.769 211.281 464.703 212.269 463.085 213.273 460.915 214.29L460.057 213.331C462.178 212.342 463.746 211.373 464.762 210.423 465.848 209.405 466.602 208.155 467.026 206.672 467.421 205.305 467.623 203.377 467.633 200.886L458 200.886 458 199.752 467.633 199.752 467.633 193.384C465.019 193.907 462.365 194.285 459.672 194.518L459.213 193.384C465.399 192.812 470.489 191.77 474.484 190.258Z" fill="#8D8D8D" fill-rule="evenodd"/><path d="M382.618 191.259 384 191.259 384 201.11C384 203.986 383.678 206.257 383.034 207.925 382.39 209.611 381.309 210.951 379.793 211.944 378.416 212.852 376.404 213.635 373.758 214.29L373 213.251C375.577 212.576 377.509 211.822 378.797 210.988 380.204 210.079 381.2 208.862 381.785 207.335 382.34 205.845 382.618 203.77 382.618 201.11L382.618 191.259Z" fill="#8D8D8D" fill-rule="evenodd"/><path d="M435.736 191.259 437.014 191.602C435.347 197.885 433.319 204.338 430.93 210.96 436.218 210.421 440.653 209.823 444.236 209.165 443.014 206.224 441.745 203.672 440.431 201.507L441.569 200.973C443.273 203.822 445.083 207.731 447 212.7L445.805 213.289C445.769 213.179 445.389 212.17 444.667 210.261 438.602 211.266 433.153 212.006 428.319 212.481L428 211.207C428.176 211.197 428.477 211.175 428.903 211.138 429.236 211.111 429.495 211.088 429.681 211.07 432.31 203.525 434.329 196.922 435.736 191.259Z" fill="#8D8D8D" fill-rule="evenodd"/><path d="M372 191.259 373 191.259 373 205.278 372 205.278 372 191.259Z" fill="#8D8D8D" fill-rule="evenodd"/><path d="M546.647 191.259C549.033 192.165 551.151 193.149 553 194.211L552.324 195.265C550.734 194.285 548.626 193.273 546 192.229L546.647 191.259Z" fill="#8D8D8D" fill-rule="evenodd"/><path d="M398.487 192.261 413.098 192.261C412.03 196.609 410.706 200.16 409.123 202.912 411.773 205.968 414.065 209.147 416 212.45L414.77 213.289C413.064 210.078 410.958 206.995 408.451 204.041 406.097 207.647 402.552 210.729 397.815 213.289L397 212.353C401.279 210.032 404.577 207.225 406.893 203.931 408.904 201.077 410.401 197.563 411.382 193.389L398.487 193.389 398.487 192.261Z" fill="#8D8D8D" fill-rule="evenodd"/><path d="M514.738 193.262C517.09 194.479 519.177 195.808 521 197.249L520.139 198.269C518.17 196.604 516.124 195.222 514 194.121L514.738 193.262Z" fill="#8D8D8D" fill-rule="evenodd"/><path d="M529.866 194.263 531 194.872C530.069 200.152 528.1 204.322 525.094 207.382 522.493 210.026 518.975 211.995 514.54 213.289L514 212.17C518.86 210.715 522.558 208.482 525.094 205.469 527.464 202.655 529.054 198.919 529.866 194.263Z" fill="#8D8D8D" fill-rule="evenodd"/><path d="M560.926 195.265 562 195.911C561.431 198.276 560.646 200.483 559.646 202.532 558.756 204.341 557.774 205.859 556.7 207.085 555.223 208.731 553.631 210.029 551.924 210.977 550.245 211.896 548.143 212.667 545.619 213.289L545 212.169C547.698 211.556 549.946 210.718 551.745 209.655 553.259 208.755 554.599 207.616 555.764 206.237 558.15 203.403 559.871 199.746 560.926 195.265Z" fill="#8D8D8D" fill-rule="evenodd"/><path d="M488.917 197.267 501.083 197.267 501.083 198.299 495.514 198.299 495.514 211.256 502 211.256 502 212.288 488 212.288 488 211.256 494.319 211.256 494.319 198.299 488.917 198.299 488.917 197.267Z" fill="#8D8D8D" fill-rule="evenodd"/><path d="M543.656 198.269C546.632 199.228 549.08 200.177 551 201.118L550.28 202.274C548.083 201.146 545.656 200.154 543 199.298L543.656 198.269Z" fill="#8D8D8D" fill-rule="evenodd"/></g></svg>